<svg viewBox="0 0 32 32" xmlns="http://www.w3.org/2000/svg"><g data-name="Layer 2"><path d="M28.5 9.53a.36.36 0 00-.06-.2L25 3.74a.51.51 0 00-.43-.24H7.43a.51.51 0 00-.43.24L3.57 9.28a.33.33 0 00-.06.19v2.33a1.86 1.86 0 00.86 1.6V28a.5.5 0 00.5.5h22.27a.5.5 0 00.5-.5V13.46a1.85 1.85 0 00.86-1.59V9.54zM7.71 4.5h16.58L27.1 9H4.9zM24.07 10v1.83a.79.79 0 01-.7.86h-1c-.41 0-.57-.12-.64-.22a2.27 2.27 0 01-.06-.64V10zm-3.43 0v1.83a.79.79 0 01-.7.86h-1c-.54 0-.6-.22-.66-.43V10zm-3.43 0v1.83a.79.79 0 01-.7.86h-1a.79.79 0 01-.7-.86V10zm-3.42 0v1.83a.8.8 0 01-.7.86h-1a.79.79 0 01-.7-.86V10zm-3.43.8v1a.91.91 0 01-.33.71 1 1 0 01-.37.15h-1a.79.79 0 01-.7-.86V10h2.43zm-5.22 1.91a.8.8 0 01-.64-.84V10h2.43v1.83a.88.88 0 01-.32.7 1.93 1.93 0 01-.9.16h-.46zm8.57 14.79H8.79v-9.15h5zm12.93 0H14.71l.08-9.65a.55.55 0 00-.15-.36.5.5 0 00-.35-.14h-6a.5.5 0 00-.5.5v9.65H5.36V13.73h.87a1.6 1.6 0 001-.39.67.67 0 00.11-.07 1.64 1.64 0 001.26.46h1a1.54 1.54 0 001-.38.67.67 0 00.14-.09 1.84 1.84 0 001.25.47h1a1.34 1.34 0 00.4-.06 1.8 1.8 0 00.8-.32 1.71 1.71 0 00.79.32 1.35 1.35 0 00.41.06h1a1.76 1.76 0 00.4-.06 1.51 1.51 0 00.74-.32 1.81 1.81 0 001.25.38h1a1.86 1.86 0 001.18-.35 1.61 1.61 0 00.81.32 2.54 2.54 0 00.41 0h1.55a1.92 1.92 0 00.89-.31 1.85 1.85 0 00.49.2 1.49 1.49 0 00.66.15h.87zm.86-15.63a.8.8 0 01-.65.84h-.59a3.51 3.51 0 01-.78-.08.89.89 0 01-.41-.78V10h2.43z"/><path d="M23.71 17.35h-6.78a.5.5 0 00-.5.49l-.07 4.61a.47.47 0 00.14.36.48.48 0 00.36.15h6.85a.5.5 0 00.5-.5v-4.61a.5.5 0 00-.5-.5zm-.5 4.65h-5.84l.06-3.61h5.78z"/></g></svg>